{
copyright = "Copyright (c) 2024 by Vladimir Nikolic. All rights reserved.";
designer = "Vladimir Nikolic";
designerURL = "https://www.coroflot.com/vladimirnikolic";
familyName = Angelica;
customParameters = (
{
name = glyphOrder;
value = (
.notdef,
exclam,
quotedbl,
numbersign,
dollar,
percent,
ampersand,
quotesingle,
parenleft,
parenright,
asterisk,
plus,
comma,
hyphen,
period,
slash,
zero,
one,
two,
three,
four,
five,
six,
seven,
eight,
nine,
colon,
semicolon,
less,
equal,
greater,
question,
at,
A,
B,
C,
D,
E,
F,
G,
H,
I,
J,
K,
L,
M,
N,
O,
P,
Q,
R,
S,
T,
U,
V,
W,
X,
Y,
Z,
bracketleft,
backslash,
bracketright,
underscore,
a,
b,
c,
d,
e,
f,
g,
h,
i,
j,
k,
l,
m,
n,
o,
p,
q,
r,
s,
t,
u,
x,
z,
Euro,
NULL,
CR,
space,
w,
y,
v
);
},
{
name = trademark;
value = "Angelica Bold is a trademark of Vladimir Nikolic.";
}
);
fontMaster = (
{
ascender = 750;
capHeight = 700;
customParameters = (
{
name = typoAscender;
value = 750;
},
{
name = typoDescender;
value = -250;
},
{
name = typoLineGap;
value = 0;
},
{
name = winAscent;
value = 855;
},
{
name = winDescent;
value = 166;
},
{
name = underlineThickness;
value = 50;
},
{
name = underlinePosition;
value = -75;
},
{
name = strikeoutPosition;
value = 250;
},
{
name = strikeoutSize;
value = 50;
},
{
name = subscriptXOffset;
value = 0;
},
{
name = subscriptXSize;
value = 700;
},
{
name = subscriptYOffset;
value = 140;
},
{
name = subscriptYSize;
value = 650;
},
{
name = superscriptXOffset;
value = 0;
},
{
name = superscriptXSize;
value = 700;
},
{
name = superscriptYOffset;
value = 477;
},
{
name = superscriptYSize;
value = 650;
},
{
name = hheaAscender;
value = 750;
},
{
name = hheaDescender;
value = -250;
},
{
name = hheaLineGap;
value = 0;
}
);
descender = -250;
guideLines = (
{
position = "{0, 250}";
}
);
id = "060321D7-853C-43F9-813D-B17018750B50";
iconName = Bold;
weight = Bold;
widthValue = 100;
weightValue = 175;
xHeight = 500;
}
);
glyphs = (
{
glyphname = exclam;
layers = (
{
layerId = "060321D7-853C-43F9-813D-B17018750B50";
paths = (
{
nodes = (
"355 694 LINE",
"355 179 LINE",
"28 179 LINE",
"28 694 LINE"
);
},
{
nodes = (
"355 120 LINE",
"355 0 LINE",
"28 0 LINE",
"28 122 LINE"
);
}
);
width = 384;
}
);
unicode = 0021;
},
{
glyphname = quotedbl;
layers = (
{
layerId = "060321D7-853C-43F9-813D-B17018750B50";
paths = (
{
nodes = (
"242 694 LINE",
"176 415 LINE",
"51 415 LINE",
"17 694 LINE"
);
},
{
nodes = (
"489 694 LINE",
"423 415 LINE",
"298 415 LINE",
"264 694 LINE"
);
}
);
width = 505;
}
);
unicode = 0022;
},
{
glyphname = numbersign;
layers = (
{
layerId = "060321D7-853C-43F9-813D-B17018750B50";
paths = (
{
nodes = (
"484 329 LINE",
"397 329 LINE",
"382 259 LINE",
"463 259 LINE",
"463 155 LINE",
"362 155 LINE",
"332 0 LINE",
"232 0 LINE",
"262 155 LINE",
"194 155 LINE",
"164 0 LINE",
"64 0 LINE",
"94 155 LINE",
"31 155 LINE",
"31 259 LINE",
"114 259 LINE",
"129 329 LINE",
"29 329 LINE",
"29 433 LINE",
"149 433 LINE",
"180 595 LINE",
"280 595 LINE",
"249 433 LINE",
"317 433 LINE",
"348 595 LINE",
"448 595 LINE",
"417 433 LINE",
"484 433 LINE"
);
},
{
nodes = (
"282 259 LINE",
"297 329 LINE",
"229 329 LINE",
"214 259 LINE"
);
}
);
width = 508;
}
);
unicode = 0023;
},
{
glyphname = dollar;
layers = (
{
layerId = "060321D7-853C-43F9-813D-B17018750B50";
paths = (
{
nodes = (
"700 390 OFFCURVE",
"747 327 OFFCURVE",
"765 263 OFFCURVE",
"765 240 QCURVE SMOOTH",
"765 205 LINE SMOOTH",
"765 141 OFFCURVE",
"696 40 OFFCURVE",
"639 16 QCURVE SMOOTH",
"623 9 OFFCURVE",
"590 1 OFFCURVE",
"573 0 QCURVE",
"553 0 LINE",
"553 -86 LINE",
"434 -86 LINE",
"434 0 LINE",
"361 0 LINE",
"361 -86 LINE",
"251 -86 LINE",
"251 0 LINE",
"218 0 LINE SMOOTH",
"179 0 OFFCURVE",
"112 36 OFFCURVE",
"62 95 OFFCURVE",
"33 168 OFFCURVE",
"32 204 QCURVE",
"155 204 LINE",
"155 200 LINE SMOOTH",
"155 181 OFFCURVE",
"180 142 OFFCURVE",
"201 130 QCURVE SMOOTH",
"206 128 OFFCURVE",
"217 124 OFFCURVE",
"222 123 QCURVE",
"249 123 LINE",
"249 291 LINE",
"190 292 LINE",
"163 292 OFFCURVE",
"133 305 QCURVE SMOOTH",
"104 319 OFFCURVE",
"54 371 OFFCURVE",
"32 433 OFFCURVE",
"32 456 QCURVE SMOOTH",
"32 491 LINE SMOOTH",
"32 555 OFFCURVE",
"101 656 OFFCURVE",
"158 680 QCURVE SMOOTH",
"174 687 OFFCURVE",
"207 695 OFFCURVE",
"224 696 QCURVE",
"254 700 LINE",
"254 782 LINE",
"363 782 LINE",
"363 696 LINE",
"436 696 LINE",
"436 782 LINE",
"550 782 LINE",
"549 696 LINE",
"579 696 LINE SMOOTH",
"618 696 OFFCURVE",
"685 660 OFFCURVE",
"735 601 OFFCURVE",
"764 528 OFFCURVE",
"765 492 QCURVE",
"642 492 LINE",
"642 496 LINE SMOOTH",
"642 515 OFFCURVE",
"617 554 OFFCURVE",
"596 566 QCURVE SMOOTH",
"591 568 OFFCURVE",
"580 572 OFFCURVE",
"575 573 QCURVE",
"548 573 LINE",
"548 417 LINE",
"607 416 LINE",
"634 416 OFFCURVE",
"664 403 QCURVE"
);
},
{
nodes = (
"553 291 LINE",
"553 123 LINE",
"581 123 LINE",
"581 125 LINE",
"588 127 OFFCURVE",
"594 130 QCURVE",
"613 134 OFFCURVE",
"642 171 OFFCURVE",
"645 191 QCURVE",
"646 212 LINE",
"643 243 OFFCURVE",
"635 257 OFFCURVE",
"609 286 OFFCURVE",
"589 291 QCURVE"
);
},
{
nodes = (
"249 415 LINE",
"249 573 LINE",
"216 573 LINE",
"216 571 LINE",
"209 569 OFFCURVE",
"203 566 QCURVE",
"184 562 OFFCURVE",
"155 525 OFFCURVE",
"152 505 QCURVE",
"151 484 LINE",
"154 453 OFFCURVE",
"162 439 OFFCURVE",
"188 420 OFFCURVE",
"208 415 QCURVE"
);
},
{
nodes = (
"434 291 LINE",
"361 291 LINE",
"361 123 LINE",
"434 123 LINE"
);
},
{
nodes = (
"363 415 LINE",
"436 415 LINE",
"436 573 LINE",
"363 573 LINE"
);
}
);
width = 788;
}
);
unicode = 0024;
},
{
glyphname = percent;
layers = (
{
layerId = "060321D7-853C-43F9-813D-B17018750B50";
paths = (
{
nodes = (
"542 696 LINE",
"354 0 LINE",
"282 0 LINE",
"463 696 LINE"
);
},
{
nodes = (
"351 412 LINE SMOOTH",
"351 391 OFFCURVE",
"332 355 OFFCURVE",
"302 328 OFFCURVE",
"264 312 OFFCURVE",
"245 312 QCURVE SMOOTH",
"121 312 LINE SMOOTH",
"100 312 OFFCURVE",
"64 331 OFFCURVE",
"37 362 OFFCURVE",
"22 402 OFFCURVE",
"22 422 QCURVE SMOOTH",
"22 595 LINE SMOOTH",
"22 613 OFFCURVE",
"39 649 OFFCURVE",
"68 678 OFFCURVE",
"103 696 OFFCURVE",
"121 696 QCURVE SMOOTH",
"253 696 LINE SMOOTH",
"274 696 OFFCURVE",
"309 676 OFFCURVE",
"336 645 OFFCURVE",
"351 605 OFFCURVE",
"351 585 QCURVE SMOOTH"
);
},
{
nodes = (
"271 585 LINE SMOOTH",
"271 596 OFFCURVE",
"258 613 OFFCURVE",
"248 613 QCURVE SMOOTH",
"232 613 LINE",
"232 393 LINE",
"248 393 LINE SMOOTH",
"256 393 OFFCURVE",
"271 409 OFFCURVE",
"271 418 QCURVE SMOOTH"
);
},
{
nodes = (
"804 100 LINE SMOOTH",
"804 79 OFFCURVE",
"785 43 OFFCURVE",
"755 16 OFFCURVE",
"717 0 OFFCURVE",
"698 0 QCURVE SMOOTH",
"574 0 LINE SMOOTH",
"553 0 OFFCURVE",
"517 19 OFFCURVE",
"490 50 OFFCURVE",
"475 90 OFFCURVE",
"475 110 QCURVE SMOOTH",
"475 283 LINE SMOOTH",
"475 301 OFFCURVE",
"492 337 OFFCURVE",
"521 366 OFFCURVE",
"556 384 OFFCURVE",
"574 384 QCURVE SMOOTH",
"706 384 LINE SMOOTH",
"727 384 OFFCURVE",
"762 364 OFFCURVE",
"789 333 OFFCURVE",
"804 293 OFFCURVE",
"804 273 QCURVE SMOOTH"
);
},
{
nodes = (
"724 273 LINE SMOOTH",
"724 284 OFFCURVE",
"711 301 OFFCURVE",
"701 301 QCURVE SMOOTH",
"685 301 LINE",
"685 81 LINE",
"701 81 LINE SMOOTH",
"709 81 OFFCURVE",
"724 97 OFFCURVE",
"724 106 QCURVE SMOOTH"
);
}
);
width = 826;
}
);
unicode = 0025;
},
{
glyphname = ampersand;
layers = (
{
layerId = "060321D7-853C-43F9-813D-B17018750B50";
paths = (
{
nodes = (
"618 85 OFFCURVE",
"569 29 OFFCURVE",
"501 0 OFFCURVE",
"458 0 QCURVE",
"439 -1 OFFCURVE",
"346 0 QCURVE",
"215 0 LINE SMOOTH",
"175 0 OFFCURVE",
"105 30 OFFCURVE",
"52 83 OFFCURVE",
"22 153 OFFCURVE",
"22 193 QCURVE SMOOTH",
"22 210 OFFCURVE",
"21 226 OFFCURVE",
"21 227 QCURVE",
"21 239 OFFCURVE",
"26 256 QCURVE SMOOTH",
"30 274 OFFCURVE",
"52 307 OFFCURVE",
"82 333 OFFCURVE",
"99 340 QCURVE SMOOTH",
"113 346 OFFCURVE",
"127 348 QCURVE",
"110 350 OFFCURVE",
"93 358 QCURVE SMOOTH",
"73 367 OFFCURVE",
"41 397 OFFCURVE",
"22 439 OFFCURVE",
"22 465 QCURVE SMOOTH",
"22 511 LINE SMOOTH",
"22 535 OFFCURVE",
"29 556 QCURVE SMOOTH",
"38 587 OFFCURVE",
"74 639 OFFCURVE",
"123 676 OFFCURVE",
"182 696 OFFCURVE",
"215 696 QCURVE SMOOTH",
"441 696 OFFCURVE",
"460 695 QCURVE",
"503 695 OFFCURVE",
"571 666 OFFCURVE",
"620 610 OFFCURVE",
"648 537 OFFCURVE",
"650 497 QCURVE",
"527 497 LINE",
"527 499 LINE SMOOTH",
"527 512 OFFCURVE",
"513 539 OFFCURVE",
"492 560 OFFCURVE",
"465 573 OFFCURVE",
"452 573 QCURVE SMOOTH",
"379 573 LINE",
"379 410 LINE",
"526 410 LINE",
"526 414 LINE",
"525 425 OFFCURVE",
"525 432 QCURVE SMOOTH",
"525 439 LINE",
"649 439 LINE",
"649 410 LINE",
"689 410 LINE",
"689 286 LINE",
"650 286 LINE",
"650 186 LINE",
"646 152 OFFCURVE",
"632 122 QCURVE"
);
},
{
nodes = (
"379 123 LINE",
"408 122 LINE",
"450 122 LINE SMOOTH",
"463 122 OFFCURVE",
"490 135 OFFCURVE",
"511 156 OFFCURVE",
"525 183 OFFCURVE",
"526 196 QCURVE",
"526 198 LINE SMOOTH",
"526 282 OFFCURVE",
"526 286 QCURVE",
"379 286 LINE"
);
}
);
width = 709;
}
);
unicode = 0026;
},
{
glyphname = quotesingle;
layers = (
{
layerId = "060321D7-853C-43F9-813D-B17018750B50";
paths = (
{
nodes = (
"242 694 LINE",
"176 415 LINE",
"51 415 LINE",
"17 694 LINE"
);
}
);
width = 262;
}
);
unicode = 0027;
},
{
glyphname = parenleft;
layers = (
{
layerId = "060321D7-853C-43F9-813D-B17018750B50";
paths = (
{
nodes = (
"375 855 LINE",
"375 732 LINE",
"286 732 LINE",
"286 -43 LINE",
"375 -43 LINE",
"375 -166 LINE",
"146 -166 LINE SMOOTH",
"104 -166 OFFCURVE",
"30 -134 OFFCURVE",
"-26 -78 OFFCURVE",
"-58 -4 OFFCURVE",
"-58 38 QCURVE SMOOTH",
"-58 651 LINE SMOOTH",
"-58 693 OFFCURVE",
"-26 767 OFFCURVE",
"30 823 OFFCURVE",
"104 855 OFFCURVE",
"146 855 QCURVE SMOOTH"
);
}
);
width = 420;
}
);
unicode = 0028;
},
{
glyphname = parenright;
layers = (
{
layerId = "060321D7-853C-43F9-813D-B17018750B50";
paths = (
{
nodes = (
"171 855 LINE SMOOTH",
"213 855 OFFCURVE",
"287 823 OFFCURVE",
"343 767 OFFCURVE",
"375 693 OFFCURVE",
"375 651 QCURVE SMOOTH",
"375 38 LINE SMOOTH",
"375 -4 OFFCURVE",
"343 -78 OFFCURVE",
"287 -134 OFFCURVE",
"213 -166 OFFCURVE",
"171 -166 QCURVE SMOOTH",
"-58 -166 LINE",
"-58 -43 LINE",
"31 -43 LINE",
"31 732 LINE",
"-58 732 LINE",
"-58 855 LINE"
);
}
);
width = 420;
}
);
unicode = 0029;
},
{
glyphname = asterisk;
layers = (
{
layerId = "060321D7-853C-43F9-813D-B17018750B50";
paths = (
{
nodes = (
"371 456 LINE",
"310 355 LINE",
"239 421 LINE",
"249 324 LINE",
"132 324 LINE",
"142 405 LINE",
"86 349 LINE",
"20 451 LINE",
"91 487 LINE",
"15 523 LINE",
"81 619 LINE",
"142 563 LINE",
"127 660 LINE",
"244 660 LINE",
"234 558 LINE",
"305 619 LINE",
"366 523 LINE",
"300 492 LINE"
);
}
);
width = 394;
}
);
unicode = 002A;
},
{
glyphname = plus;
layers = (
{
layerId = "060321D7-853C-43F9-813D-B17018750B50";
paths = (
{
nodes = (
"278 105 LINE",
"184 105 LINE",
"184 283 LINE",
"17 283 LINE",
"17 376 LINE",
"184 376 LINE",
"184 549 LINE",
"278 549 LINE",
"278 376 LINE",
"450 376 LINE",
"450 283 LINE",
"278 283 LINE"
);
}
);
width = 468;
}
);
unicode = 002B;
},
{
glyphname = comma;
layers = (
{
layerId = "060321D7-853C-43F9-813D-B17018750B50";
paths = (
{
nodes = (
"37 112 LINE",
"165 112 LINE",
"165 0 LINE",
"37 -75 LINE"
);
}
);
width = 181;
}
);
unicode = 002C;
},
{
glyphname = hyphen;
layers = (
{
layerId = "060321D7-853C-43F9-813D-B17018750B50";
paths = (
{
nodes = (
"514 389 LINE",
"514 292 LINE",
"18 292 LINE",
"18 389 LINE"
);
}
);
width = 534;
}
);
unicode = 002D;
},
{
glyphname = period;
layers = (
{
layerId = "060321D7-853C-43F9-813D-B17018750B50";
paths = (
{
nodes = (
"191 169 LINE",
"191 0 LINE",
"26 0 LINE",
"26 169 LINE"
);
}
);
width = 215;
}
);
unicode = 002E;
},
{
glyphname = slash;
layers = (
{
layerId = "060321D7-853C-43F9-813D-B17018750B50";
paths = (
{
nodes = (
"403 800 LINE",
"95 -99 LINE",
"11 -99 LINE",
"318 800 LINE"
);
}
);
width = 420;
}
);
unicode = 002F;
},
{
glyphname = zero;
layers = (
{
layerId = "060321D7-853C-43F9-813D-B17018750B50";
paths = (
{
nodes = (
"666 186 LINE SMOOTH",
"666 148 OFFCURVE",
"630 80 OFFCURVE",
"571 29 OFFCURVE",
"498 0 OFFCURVE",
"462 0 QCURVE",
"210 1 LINE",
"171 1 OFFCURVE",
"103 37 OFFCURVE",
"52 95 OFFCURVE",
"23 168 OFFCURVE",
"23 205 QCURVE SMOOTH",
"23 510 LINE SMOOTH",
"23 543 OFFCURVE",
"57 609 OFFCURVE",
"110 663 OFFCURVE",
"177 696 OFFCURVE",
"210 696 QCURVE SMOOTH",
"480 696 LINE SMOOTH",
"518 696 OFFCURVE",
"586 659 OFFCURVE",
"637 601 OFFCURVE",
"666 528 OFFCURVE",
"666 492 QCURVE SMOOTH"
);
},
{
nodes = (
"543 492 LINE SMOOTH",
"543 507 OFFCURVE",
"531 536 OFFCURVE",
"511 559 OFFCURVE",
"484 573 OFFCURVE",
"469 573 QCURVE SMOOTH",
"392 573 LINE",
"392 123 LINE",
"469 123 LINE SMOOTH",
"482 123 OFFCURVE",
"509 136 OFFCURVE",
"530 157 OFFCURVE",
"543 183 OFFCURVE",
"543 197 QCURVE SMOOTH"
);
}
);
width = 711;
}
);
unicode = 0030;
},
{
glyphname = one;
layers = (
{
layerId = "060321D7-853C-43F9-813D-B17018750B50";
paths = (
{
nodes = (
"192 696 LINE",
"520 696 LINE",
"520 0 LINE",
"192 0 LINE",
"192 524 LINE",
"133 474 LINE",
"49 555 LINE"
);
}
);
width = 542;
}
);
unicode = 0031;
},
{
glyphname = two;
layers = (
{
layerId = "060321D7-853C-43F9-813D-B17018750B50";
paths = (
{
nodes = (
"465 696 LINE SMOOTH",
"498 696 OFFCURVE",
"564 663 OFFCURVE",
"618 609 OFFCURVE",
"651 543 OFFCURVE",
"651 510 QCURVE",
"652 368 LINE",
"652 347 OFFCURVE",
"634 303 OFFCURVE",
"604 268 OFFCURVE",
"563 246 OFFCURVE",
"540 246 QCURVE SMOOTH",
"184 246 LINE SMOOTH",
"158 246 OFFCURVE",
"143 209 OFFCURVE",
"143 187 QCURVE SMOOTH",
"143 160 LINE SMOOTH",
"143 150 OFFCURVE",
"165 123 OFFCURVE",
"177 123 QCURVE SMOOTH",
"652 123 LINE",
"652 0 LINE",
"20 0 LINE",
"20 246 LINE SMOOTH",
"20 268 OFFCURVE",
"38 311 OFFCURVE",
"68 346 OFFCURVE",
"109 368 OFFCURVE",
"132 368 QCURVE SMOOTH",
"283 368 LINE",
"283 573 LINE",
"218 573 LINE SMOOTH",
"192 573 OFFCURVE",
"162 549 OFFCURVE",
"147 513 OFFCURVE",
"143 470 OFFCURVE",
"143 451 QCURVE",
"20 451 LINE",
"20 492 LINE SMOOTH",
"20 528 OFFCURVE",
"49 601 OFFCURVE",
"100 660 OFFCURVE",
"168 696 OFFCURVE",
"207 696 QCURVE SMOOTH"
);
}
);
width = 689;
}
);
unicode = 0032;
},
{
glyphname = three;
layers = (
{
layerId = "060321D7-853C-43F9-813D-B17018750B50";
paths = (
{
nodes = (
"448 697 LINE SMOOTH",
"500 697 OFFCURVE",
"573 659 OFFCURVE",
"620 595 OFFCURVE",
"642 511 OFFCURVE",
"642 465 QCURVE SMOOTH",
"642 440 OFFCURVE",
"623 398 OFFCURVE",
"592 367 OFFCURVE",
"549 349 OFFCURVE",
"525 348 QCURVE",
"530 348 LINE SMOOTH",
"563 348 OFFCURVE",
"606 322 OFFCURVE",
"632 278 OFFCURVE",
"642 223 OFFCURVE",
"642 194 QCURVE SMOOTH",
"642 155 OFFCURVE",
"611 84 OFFCURVE",
"558 31 OFFCURVE",
"487 0 OFFCURVE",
"448 0 QCURVE SMOOTH",
"220 0 LINE SMOOTH",
"166 0 OFFCURVE",
"88 41 OFFCURVE",
"38 109 OFFCURVE",
"15 195 OFFCURVE",
"15 239 QCURVE SMOOTH",
"15 246 LINE",
"138 246 LINE",
"138 228 OFFCURVE",
"142 185 OFFCURVE",
"158 148 OFFCURVE",
"187 123 OFFCURVE",
"213 123 QCURVE SMOOTH",
"284 123 LINE",
"284 287 LINE",
"202 287 LINE",
"202 411 LINE",
"284 411 LINE",
"284 574 LINE",
"220 574 LINE SMOOTH",
"192 574 OFFCURVE",
"159 552 OFFCURVE",
"143 517 OFFCURVE",
"138 473 OFFCURVE",
"138 451 QCURVE",
"15 451 LINE",
"15 492 LINE SMOOTH",
"15 534 OFFCURVE",
"48 609 OFFCURVE",
"103 664 OFFCURVE",
"178 697 OFFCURVE",
"220 697 QCURVE SMOOTH"
);
}
);
width = 670;
}
);
unicode = 0033;
},
{
glyphname = four;
layers = (
{
layerId = "060321D7-853C-43F9-813D-B17018750B50";
paths = (
{
nodes = (
"205 430 LINE",
"308 430 LINE",
"308 527 LINE"
);
},
{
nodes = (
"636 430 LINE",
"688 430 LINE",
"688 306 LINE",
"636 306 LINE",
"636 0 LINE",
"308 0 LINE",
"308 306 LINE",
"31 306 LINE",
"31 429 LINE",
"308 696 LINE",
"636 696 LINE"
);
}
);
width = 717;
}
);
unicode = 0034;
},
{
glyphname = five;
layers = (
{
layerId = "060321D7-853C-43F9-813D-B17018750B50";
paths = (
{
nodes = (
"207 0 LINE SMOOTH",
"168 0 OFFCURVE",
"100 36 OFFCURVE",
"49 95 OFFCURVE",
"20 168 OFFCURVE",
"20 204 QCURVE SMOOTH",
"20 245 LINE",
"143 245 LINE",
"143 226 OFFCURVE",
"147 183 OFFCURVE",
"162 147 OFFCURVE",
"192 123 OFFCURVE",
"218 123 QCURVE SMOOTH",
"283 123 LINE",
"283 328 LINE",
"132 328 LINE SMOOTH",
"109 328 OFFCURVE",
"68 350 OFFCURVE",
"38 385 OFFCURVE",
"20 428 OFFCURVE",
"20 450 QCURVE SMOOTH",
"20 696 LINE",
"652 696 LINE",
"652 573 LINE",
"242 573 LINE",
"242 450 LINE",
"540 450 LINE SMOOTH",
"563 450 OFFCURVE",
"604 428 OFFCURVE",
"634 393 OFFCURVE",
"652 349 OFFCURVE",
"652 328 QCURVE",
"651 186 LINE",
"651 153 OFFCURVE",
"618 87 OFFCURVE",
"564 33 OFFCURVE",
"498 0 OFFCURVE",
"465 0 QCURVE SMOOTH"
);
}
);
width = 689;
}
);
unicode = 0035;
},
{
glyphname = six;
layers = (
{
layerId = "060321D7-853C-43F9-813D-B17018750B50";
paths = (
{
nodes = (
"555 492 LINE",
"555 500 LINE SMOOTH",
"555 533 OFFCURVE",
"510 568 OFFCURVE",
"475 573 QCURVE SMOOTH",
"452 576 OFFCURVE",
"423 577 OFFCURVE",
"417 577 QCURVE SMOOTH",
"386 577 LINE",
"386 451 LINE",
"566 451 LINE SMOOTH",
"589 451 OFFCURVE",
"630 429 OFFCURVE",
"660 393 OFFCURVE",
"678 349 OFFCURVE",
"678 328 QCURVE SMOOTH",
"678 205 LINE SMOOTH",
"678 163 OFFCURVE",
"645 88 OFFCURVE",
"590 33 OFFCURVE",
"515 0 OFFCURVE",
"473 0 QCURVE",
"204 1 LINE",
"165 1 OFFCURVE",
"97 37 OFFCURVE",
"46 96 OFFCURVE",
"17 169 OFFCURVE",
"17 205 QCURVE SMOOTH",
"17 510 LINE SMOOTH",
"17 543 OFFCURVE",
"50 610 OFFCURVE",
"104 663 OFFCURVE",
"170 696 OFFCURVE",
"203 696 QCURVE SMOOTH",
"473 696 LINE SMOOTH",
"516 696 OFFCURVE",
"591 664 OFFCURVE",
"645 609 OFFCURVE",
"677 534 OFFCURVE",
"678 492 QCURVE"
);
},
{
nodes = (
"386 328 LINE",
"386 123 LINE",
"480 123 LINE SMOOTH",
"493 123 OFFCURVE",
"520 137 OFFCURVE",
"542 158 OFFCURVE",
"555 185 OFFCURVE",
"555 198 QCURVE SMOOTH",
"555 291 LINE SMOOTH",
"555 304 OFFCURVE",
"531 328 OFFCURVE",
"518 328 QCURVE SMOOTH"
);
}
);
width = 704;
}
);
unicode = 0036;
},
{
glyphname = seven;
layers = (
{
layerId = "060321D7-853C-43F9-813D-B17018750B50";
paths = (
{
nodes = (
"762 696 LINE",
"434 0 LINE",
"65 0 LINE",
"369 573 LINE",
"24 573 LINE",
"24 696 LINE"
);
}
);
width = 781;
}
);
unicode = 0037;
},
{
glyphname = eight;
layers = (
{
layerId = "060321D7-853C-43F9-813D-B17018750B50";
paths = (
{
nodes = (
"467 697 LINE",
"511 697 OFFCURVE",
"581 663 OFFCURVE",
"630 606 OFFCURVE",
"657 530 OFFCURVE",
"657 488 QCURVE SMOOTH",
"657 467 OFFCURVE",
"639 416 OFFCURVE",
"623 395 QCURVE SMOOTH",
"608 373 OFFCURVE",
"569 348 OFFCURVE",
"550 348 QCURVE SMOOTH",
"546 348 LINE",
"565 345 OFFCURVE",
"584 334 QCURVE SMOOTH",
"615 317 OFFCURVE",
"657 249 OFFCURVE",
"657 209 QCURVE SMOOTH",
"657 168 OFFCURVE",
"630 93 OFFCURVE",
"580 35 OFFCURVE",
"509 0 OFFCURVE",
"464 0 QCURVE SMOOTH",
"215 0 LINE SMOOTH",
"175 0 OFFCURVE",
"105 30 OFFCURVE",
"52 83 OFFCURVE",
"22 153 OFFCURVE",
"22 193 QCURVE SMOOTH",
"22 210 OFFCURVE",
"21 226 OFFCURVE",
"21 227 QCURVE",
"21 239 OFFCURVE",
"26 256 QCURVE SMOOTH",
"30 274 OFFCURVE",
"52 307 OFFCURVE",
"82 333 OFFCURVE",
"117 348 OFFCURVE",
"133 348 QCURVE SMOOTH",
"137 348 LINE",
"115 349 OFFCURVE",
"73 367 OFFCURVE",
"41 397 OFFCURVE",
"22 439 OFFCURVE",
"22 465 QCURVE SMOOTH",
"22 511 LINE SMOOTH",
"22 535 OFFCURVE",
"29 556 QCURVE SMOOTH",
"38 587 OFFCURVE",
"74 639 OFFCURVE",
"123 676 OFFCURVE",
"182 696 OFFCURVE",
"215 696 QCURVE"
);
},
{
nodes = (
"534 512 OFFCURVE",
"520 539 OFFCURVE",
"499 560 OFFCURVE",
"472 573 OFFCURVE",
"459 573 QCURVE SMOOTH",
"433 573 LINE",
"433 410 LINE",
"460 410 LINE SMOOTH",
"476 410 OFFCURVE",
"503 425 OFFCURVE",
"523 451 OFFCURVE",
"534 482 OFFCURVE",
"534 499 QCURVE SMOOTH"
);
},
{
nodes = (
"459 123 LINE SMOOTH",
"474 123 OFFCURVE",
"501 137 OFFCURVE",
"522 160 OFFCURVE",
"534 189 OFFCURVE",
"534 204 QCURVE SMOOTH",
"534 237 OFFCURVE",
"486 286 OFFCURVE",
"453 286 QCURVE SMOOTH",
"433 286 LINE",
"433 123 LINE"
);
}
);
width = 694;
}
);
unicode = 0038;
},
{
glyphname = nine;
layers = (
{
layerId = "060321D7-853C-43F9-813D-B17018750B50";
paths = (
{
nodes = (
"352 245 LINE",
"352 122 LINE",
"441 122 LINE SMOOTH",
"454 122 OFFCURVE",
"480 136 OFFCURVE",
"501 157 OFFCURVE",
"515 183 OFFCURVE",
"515 196 QCURVE SMOOTH",
"515 286 LINE",
"136 286 LINE SMOOTH",
"113 286 OFFCURVE",
"72 308 OFFCURVE",
"42 343 OFFCURVE",
"24 387 OFFCURVE",
"24 409 QCURVE SMOOTH",
"24 491 LINE SMOOTH",
"24 533 OFFCURVE",
"57 607 OFFCURVE",
"113 663 OFFCURVE",
"187 696 OFFCURVE",
"229 696 QCURVE SMOOTH",
"452 696 LINE",
"490 695 OFFCURVE",
"558 658 OFFCURVE",
"609 600 OFFCURVE",
"638 527 OFFCURVE",
"638 491 QCURVE SMOOTH",
"638 204 LINE SMOOTH",
"638 168 OFFCURVE",
"609 95 OFFCURVE",
"558 36 OFFCURVE",
"491 0 OFFCURVE",
"452 0 QCURVE",
"229 -1 LINE",
"174 -1 OFFCURVE",
"96 40 OFFCURVE",
"47 108 OFFCURVE",
"24 193 OFFCURVE",
"24 237 QCURVE SMOOTH",
"24 245 LINE"
);
},
{
nodes = (
"352 572 LINE",
"352 409 LINE",
"515 409 LINE",
"515 498 LINE SMOOTH",
"515 511 OFFCURVE",
"501 537 OFFCURVE",
"480 558 OFFCURVE",
"454 572 OFFCURVE",
"441 572 QCURVE SMOOTH"
);
}
);
width = 681;
}
);
unicode = 0039;
},
{
glyphname = colon;
layers = (
{
layerId = "060321D7-853C-43F9-813D-B17018750B50";
paths = (
{
nodes = (
"45 591 OFFCURVE",
"83 630 OFFCURVE",
"112 630 QCURVE SMOOTH",
"141 630 OFFCURVE",
"180 591 OFFCURVE",
"180 562 QCURVE SMOOTH",
"180 533 OFFCURVE",
"141 495 OFFCURVE",
"112 495 QCURVE SMOOTH",
"83 495 OFFCURVE",
"45 533 OFFCURVE",
"45 562 QCURVE SMOOTH"
);
},
{
nodes = (
"45 166 OFFCURVE",
"83 205 OFFCURVE",
"112 205 QCURVE SMOOTH",
"141 205 OFFCURVE",
"180 166 OFFCURVE",
"180 137 QCURVE SMOOTH",
"180 108 OFFCURVE",
"141 70 OFFCURVE",
"112 70 QCURVE SMOOTH",
"83 70 OFFCURVE",
"45 108 OFFCURVE",
"45 137 QCURVE SMOOTH"
);
}
);
width = 212;
}
);
unicode = 003A;
},
{
glyphname = semicolon;
layers = (
{
layerId = "060321D7-853C-43F9-813D-B17018750B50";
paths = (
{
nodes = (
"51 112 LINE",
"179 112 LINE",
"179 0 LINE",
"51 -75 LINE"
);
},
{
nodes = (
"45 591 OFFCURVE",
"83 630 OFFCURVE",
"112 630 QCURVE SMOOTH",
"141 630 OFFCURVE",
"180 591 OFFCURVE",
"180 562 QCURVE SMOOTH",
"180 533 OFFCURVE",
"141 495 OFFCURVE",
"112 495 QCURVE SMOOTH",
"83 495 OFFCURVE",
"45 533 OFFCURVE",
"45 562 QCURVE SMOOTH"
);
}
);
width = 238;
}
);
unicode = 003B;
},
{
glyphname = less;
layers = (
{
layerId = "060321D7-853C-43F9-813D-B17018750B50";
paths = (
{
nodes = (
"34 160 LINE",
"258 332 LINE",
"34 504 LINE",
"103 605 LINE",
"394 382 LINE",
"394 278 LINE",
"103 59 LINE"
);
}
);
width = 422;
}
);
unicode = 003C;
},
{
glyphname = equal;
layers = (
{
layerId = "060321D7-853C-43F9-813D-B17018750B50";
paths = (
{
nodes = (
"504 545 LINE",
"504 419 LINE",
"27 419 LINE",
"27 545 LINE"
);
},
{
nodes = (
"504 297 LINE",
"504 171 LINE",
"27 171 LINE",
"27 297 LINE"
);
}
);
width = 535;
}
);
unicode = 003D;
},
{
glyphname = greater;
layers = (
{
layerId = "060321D7-853C-43F9-813D-B17018750B50";
paths = (
{
nodes = (
"34 160 LINE",
"258 332 LINE",
"34 504 LINE",
"103 605 LINE",
"394 382 LINE",
"394 278 LINE",
"103 59 LINE"
);
}
);
width = 422;
}
);
unicode = 003E;
},
{
glyphname = question;
layers = (
{
layerId = "060321D7-853C-43F9-813D-B17018750B50";
paths = (
{
nodes = (
"181 566 OFFCURVE",
"154 540 OFFCURVE",
"140 490 OFFCURVE",
"140 449 QCURVE",
"17 449 LINE",
"17 490 LINE SMOOTH",
"17 532 OFFCURVE",
"49 606 OFFCURVE",
"105 661 OFFCURVE",
"179 694 OFFCURVE",
"221 694 QCURVE",
"525 693 LINE",
"558 693 OFFCURVE",
"624 660 OFFCURVE",
"677 608 OFFCURVE",
"710 541 OFFCURVE",
"710 508 QCURVE",
"711 368 LINE",
"711 324 OFFCURVE",
"677 275 OFFCURVE",
"623 251 OFFCURVE",
"556 245 OFFCURVE",
"523 245 QCURVE",
"523 158 LINE",
"229 158 LINE",
"229 574 LINE",
"213 573 OFFCURVE",
"200 570 QCURVE SMOOTH"
);
},
{
nodes = (
"523 123 LINE",
"523 0 LINE",
"229 0 LINE",
"229 123 LINE"
);
}
);
width = 729;
}
);
unicode = 003F;
},
{
glyphname = at;
layers = (
{
layerId = "060321D7-853C-43F9-813D-B17018750B50";
paths = (
{
nodes = (
"436 631 OFFCURVE",
"560 577 OFFCURVE",
"652 484 OFFCURVE",
"706 359 OFFCURVE",
"706 288 QCURVE SMOOTH",
"706 231 OFFCURVE",
"690 180 QCURVE",
"690 179 LINE",
"689 178 LINE",
"689 176 LINE",
"688 175 LINE",
"688 174 LINE",
"687 171 OFFCURVE",
"685 167 QCURVE SMOOTH",
"683 161 OFFCURVE",
"677 146 OFFCURVE",
"653 105 QCURVE",
"281 104 LINE",
"264 104 OFFCURVE",
"228 118 OFFCURVE",
"199 143 OFFCURVE",
"182 177 OFFCURVE",
"182 195 QCURVE SMOOTH",
"182 234 LINE SMOOTH",
"182 252 OFFCURVE",
"196 287 OFFCURVE",
"221 316 OFFCURVE",
"254 334 OFFCURVE",
"272 334 QCURVE SMOOTH",
"332 334 LINE",
"332 423 LINE",
"182 423 LINE",
"181 484 LINE",
"498 484 LINE SMOOTH",
"514 484 OFFCURVE",
"547 467 OFFCURVE",
"573 441 OFFCURVE",
"589 409 OFFCURVE",
"589 393 QCURVE",
"590 139 LINE",
"622 139 LINE",
"652 189 OFFCURVE",
"663 261 OFFCURVE",
"663 288 QCURVE SMOOTH",
"663 349 OFFCURVE",
"616 458 OFFCURVE",
"536 540 OFFCURVE",
"427 587 OFFCURVE",
"366 587 QCURVE SMOOTH",
"304 587 OFFCURVE",
"196 540 OFFCURVE",
"114 458 OFFCURVE",
"67 349 OFFCURVE",
"67 288 QCURVE SMOOTH",
"67 226 OFFCURVE",
"114 118 OFFCURVE",
"196 38 OFFCURVE",
"304 -9 OFFCURVE",
"366 -9 QCURVE SMOOTH",
"415 -9 OFFCURVE",
"504 20 OFFCURVE",
"540 46 QCURVE",
"619 49 LINE",
"546 -12 OFFCURVE",
"426 -52 OFFCURVE",
"366 -52 QCURVE SMOOTH",
"295 -52 OFFCURVE",
"170 2 OFFCURVE",
"77 94 OFFCURVE",
"23 218 OFFCURVE",
"23 288 QCURVE SMOOTH",
"23 359 OFFCURVE",
"77 484 OFFCURVE",
"170 577 OFFCURVE",
"295 631 OFFCURVE",
"366 631 QCURVE SMOOTH"
);
},
{
nodes = (
"242 200 LINE SMOOTH",
"242 194 OFFCURVE",
"248 181 OFFCURVE",
"258 171 OFFCURVE",
"271 164 OFFCURVE",
"278 164 QCURVE SMOOTH",
"332 164 LINE",
"332 274 LINE",
"278 274 LINE SMOOTH",
"271 274 OFFCURVE",
"257 267 OFFCURVE",
"248 256 OFFCURVE",
"242 241 OFFCURVE",
"242 234 QCURVE SMOOTH"
);
}
);
width = 742;
}
);
unicode = 0040;
},
{
glyphname = A;
layers = (
{
layerId = "060321D7-853C-43F9-813D-B17018750B50";
paths = (
{
nodes = (
"127 0 LINE",
"10 0 LINE",
"333 696 LINE",
"518 696 LINE",
"844 0 LINE",
"475 0 LINE",
"410 157 LINE",
"199 157 LINE"
);
},
{
nodes = (
"369 259 LINE",
"311 400 LINE",
"246 259 LINE"
);
}
);
width = 844;
}
);
unicode = 0041;
},
{
glyphname = B;
layers = (
{
layerId = "060321D7-853C-43F9-813D-B17018750B50";
paths = (
{
nodes = (
"18 695 LINE",
"429 695 LINE SMOOTH",
"491 695 OFFCURVE",
"572 655 OFFCURVE",
"631 585 OFFCURVE",
"649 508 OFFCURVE",
"635 438 QCURVE",
"628 411 OFFCURVE",
"601 376 QCURVE",
"645 333 OFFCURVE",
"654 283 QCURVE",
"664 204 OFFCURVE",
"631 110 OFFCURVE",
"572 40 OFFCURVE",
"491 0 OFFCURVE",
"429 0 QCURVE SMOOTH",
"18 0 LINE"
);
},
{
nodes = (
"549 261 OFFCURVE",
"490 320 OFFCURVE",
"445 320 QCURVE",
"445 112 LINE",
"490 112 OFFCURVE",
"549 171 OFFCURVE",
"549 216 QCURVE SMOOTH"
);
},
{
nodes = (
"538 539 OFFCURVE",
"484 594 OFFCURVE",
"443 594 QCURVE",
"443 399 LINE",
"484 399 OFFCURVE",
"538 455 OFFCURVE",
"538 497 QCURVE SMOOTH"
);
}
);
width = 692;
}
);
unicode = 0042;
},
{
glyphname = C;
layers = (
{
layerId = "060321D7-853C-43F9-813D-B17018750B50";
paths = (
{
nodes = (
"485 696 LINE SMOOTH",
"524 696 OFFCURVE",
"591 660 OFFCURVE",
"641 601 OFFCURVE",
"670 528 OFFCURVE",
"671 492 QCURVE",
"548 492 LINE",
"548 496 LINE SMOOTH",
"548 508 OFFCURVE",
"536 535 OFFCURVE",
"516 558 OFFCURVE",
"489 573 OFFCURVE",
"474 573 QCURVE SMOOTH",
"388 573 LINE",
"388 123 LINE",
"474 123 LINE SMOOTH",
"489 123 OFFCURVE",
"516 138 OFFCURVE",
"536 162 OFFCURVE",
"548 189 OFFCURVE",
"548 201 QCURVE SMOOTH",
"548 205 LINE",
"671 205 LINE",
"670 163 OFFCURVE",
"638 88 OFFCURVE",
"584 32 OFFCURVE",
"510 0 OFFCURVE",
"467 0 QCURVE SMOOTH",
"206 0 LINE SMOOTH",
"167 0 OFFCURVE",
"100 37 OFFCURVE",
"49 95 OFFCURVE",
"20 169 OFFCURVE",
"20 205 QCURVE SMOOTH",
"20 492 LINE SMOOTH",
"20 528 OFFCURVE",
"49 601 OFFCURVE",
"100 659 OFFCURVE",
"167 696 OFFCURVE",
"206 696 QCURVE SMOOTH"
);
}
);
width = 692;
}
);
unicode = 0043;
},
{
glyphname = D;
layers = (
{
layerId = "060321D7-853C-43F9-813D-B17018750B50";
paths = (
{
nodes = (
"639 205 LINE SMOOTH",
"639 163 OFFCURVE",
"607 88 OFFCURVE",
"551 32 OFFCURVE",
"476 0 OFFCURVE",
"434 0 QCURVE SMOOTH",
"22 0 LINE",
"22 697 LINE",
"434 697 LINE SMOOTH",
"476 697 OFFCURVE",
"551 664 OFFCURVE",
"606 609 OFFCURVE",
"639 534 OFFCURVE",
"639 492 QCURVE SMOOTH"
);
},
{
nodes = (
"516 499 LINE SMOOTH",
"516 512 OFFCURVE",
"502 539 OFFCURVE",
"481 560 OFFCURVE",
"455 573 OFFCURVE",
"442 573 QCURVE SMOOTH",
"349 573 LINE",
"349 123 LINE",
"442 123 LINE SMOOTH",
"455 123 OFFCURVE",
"481 137 OFFCURVE",
"502 158 OFFCURVE",
"516 184 OFFCURVE",
"516 197 QCURVE SMOOTH"
);
}
);
width = 673;
}
);
unicode = 0044;
},
{
glyphname = E;
layers = (
{
layerId = "060321D7-853C-43F9-813D-B17018750B50";
paths = (
{
nodes = (
"349 419 LINE",
"524 419 LINE",
"524 315 LINE",
"349 315 LINE",
"349 123 LINE",
"525 123 LINE",
"525 0 LINE",
"22 0 LINE",
"22 696 LINE",
"525 696 LINE",
"525 573 LINE",
"349 573 LINE"
);
}
);
width = 616;
}
);
unicode = 0045;
},
{
glyphname = F;
layers = (
{
layerId = "060321D7-853C-43F9-813D-B17018750B50";
paths = (
{
nodes = (
"360 420 LINE",
"520 420 LINE",
"520 305 LINE",
"360 305 LINE",
"360 0 LINE",
"33 0 LINE",
"33 697 LINE",
"519 697 LINE",
"519 574 LINE",
"360 574 LINE"
);
}
);
width = 552;
}
);
unicode = 0046;
},
{
glyphname = G;
layers = (
{
layerId = "060321D7-853C-43F9-813D-B17018750B50";
paths = (
{
nodes = (
"511 696 LINE SMOOTH",
"550 696 OFFCURVE",
"617 660 OFFCURVE",
"667 601 OFFCURVE",
"696 528 OFFCURVE",
"697 492 QCURVE",
"574 492 LINE",
"574 496 LINE SMOOTH",
"574 508 OFFCURVE",
"562 535 OFFCURVE",
"542 558 OFFCURVE",
"515 573 OFFCURVE",
"500 573 QCURVE SMOOTH",
"402 573 LINE",
"402 123 LINE",
"480 123 LINE",
"488 124 OFFCURVE",
"497 126 QCURVE SMOOTH",
"514 130 OFFCURVE",
"529 137 QCURVE SMOOTH",
"567 156 OFFCURVE",
"567 197 QCURVE SMOOTH",
"567 205 LINE",
"503 205 LINE",
"503 328 LINE",
"690 328 LINE",
"690 205 LINE SMOOTH",
"690 163 OFFCURVE",
"657 89 OFFCURVE",
"602 33 OFFCURVE",
"564 16 QCURVE SMOOTH",
"530 1 OFFCURVE",
"493 0 QCURVE",
"220 0 LINE SMOOTH",
"181 0 OFFCURVE",
"114 37 OFFCURVE",
"63 95 OFFCURVE",
"34 169 OFFCURVE",
"34 205 QCURVE SMOOTH",
"34 492 LINE SMOOTH",
"34 528 OFFCURVE",
"63 601 OFFCURVE",
"114 659 OFFCURVE",
"181 696 OFFCURVE",
"220 696 QCURVE SMOOTH"
);
}
);
width = 711;
}
);
unicode = 0047;
},
{
glyphname = H;
layers = (
{
layerId = "060321D7-853C-43F9-813D-B17018750B50";
paths = (
{
nodes = (
"563 256 LINE",
"563 697 LINE",
"686 697 LINE",
"686 0 LINE",
"563 0 LINE",
"563 142 LINE",
"401 142 LINE",
"401 0 LINE",
"32 0 LINE",
"32 697 LINE",
"401 697 LINE",
"401 256 LINE"
);
}
);
width = 717;
}
);
unicode = 0048;
},
{
glyphname = I;
layers = (
{
layerId = "060321D7-853C-43F9-813D-B17018750B50";
paths = (
{
nodes = (
"356 696 LINE",
"356 0 LINE",
"29 0 LINE",
"29 696 LINE"
);
}
);
width = 383;
}
);
unicode = 0049;
},
{
glyphname = J;
layers = (
{
layerId = "060321D7-853C-43F9-813D-B17018750B50";
paths = (
{
nodes = (
"441 697 LINE",
"441 205 LINE SMOOTH",
"441 163 OFFCURVE",
"408 88 OFFCURVE",
"353 33 OFFCURVE",
"278 0 OFFCURVE",
"236 0 QCURVE SMOOTH",
"41 0 LINE",
"41 123 LINE",
"113 123 LINE",
"113 697 LINE"
);
}
);
width = 477;
}
);
unicode = 004A;
},
{
glyphname = K;
layers = (
{
layerId = "060321D7-853C-43F9-813D-B17018750B50";
paths = (
{
nodes = (
"388 279 LINE",
"388 0 LINE",
"19 0 LINE",
"19 697 LINE",
"388 697 LINE",
"388 443 LINE",
"593 697 LINE",
"716 697 LINE",
"565 505 LINE",
"755 0 LINE",
"645 0 LINE",
"487 407 LINE"
);
}
);
width = 778;
}
);
unicode = 004B;
},
{
glyphname = L;
layers = (
{
layerId = "060321D7-853C-43F9-813D-B17018750B50";
paths = (
{
nodes = (
"580 123 LINE",
"580 0 LINE",
"26 0 LINE",
"26 697 LINE",
"354 697 LINE",
"354 123 LINE"
);
}
);
width = 605;
}
);
unicode = 004C;
},
{
glyphname = M;
layers = (
{
layerId = "060321D7-853C-43F9-813D-B17018750B50";
paths = (
{
nodes = (
"397 696 LINE",
"516 531 LINE",
"635 696 LINE",
"1003 696 LINE",
"1003 0 LINE",
"635 0 LINE",
"635 525 LINE",
"517 357 LINE",
"517 354 LINE",
"397 525 LINE",
"397 0 LINE",
"29 0 LINE",
"29 696 LINE"
);
}
);
width = 1038;
}
);
unicode = 004D;
},
{
glyphname = N;
layers = (
{
layerId = "060321D7-853C-43F9-813D-B17018750B50";
paths = (
{
nodes = (
"392 697 LINE",
"617 354 LINE",
"617 697 LINE",
"740 697 LINE",
"740 0 LINE",
"617 0 LINE",
"617 144 LINE",
"392 484 LINE",
"392 0 LINE",
"23 0 LINE",
"23 697 LINE"
);
}
);
width = 779;
}
);
unicode = 004E;
},
{
glyphname = O;
layers = (
{
layerId = "060321D7-853C-43F9-813D-B17018750B50";
paths = (
{
nodes = (
"666 186 LINE SMOOTH",
"666 148 OFFCURVE",
"630 80 OFFCURVE",
"571 29 OFFCURVE",
"498 0 OFFCURVE",
"462 0 QCURVE",
"210 1 LINE",
"171 1 OFFCURVE",
"103 37 OFFCURVE",
"52 95 OFFCURVE",
"23 168 OFFCURVE",
"23 205 QCURVE SMOOTH",
"23 510 LINE SMOOTH",
"23 543 OFFCURVE",
"57 609 OFFCURVE",
"110 663 OFFCURVE",
"177 696 OFFCURVE",
"210 696 QCURVE SMOOTH",
"480 696 LINE SMOOTH",
"518 696 OFFCURVE",
"586 659 OFFCURVE",
"637 601 OFFCURVE",
"666 528 OFFCURVE",
"666 492 QCURVE SMOOTH"
);
},
{
nodes = (
"543 492 LINE SMOOTH",
"543 507 OFFCURVE",
"531 536 OFFCURVE",
"511 559 OFFCURVE",
"484 573 OFFCURVE",
"469 573 QCURVE SMOOTH",
"392 573 LINE",
"392 123 LINE",
"469 123 LINE SMOOTH",
"482 123 OFFCURVE",
"509 136 OFFCURVE",
"530 157 OFFCURVE",
"543 183 OFFCURVE",
"543 197 QCURVE SMOOTH"
);
}
);
width = 711;
}
);
unicode = 004F;
},
{
glyphname = P;
layers = (
{
layerId = "060321D7-853C-43F9-813D-B17018750B50";
paths = (
{
nodes = (
"390 287 LINE",
"390 0 LINE",
"21 0 LINE",
"21 696 LINE",
"427 696 LINE SMOOTH",
"466 696 OFFCURVE",
"535 659 OFFCURVE",
"585 601 OFFCURVE",
"614 528 OFFCURVE",
"614 492 QCURVE SMOOTH",
"614 447 OFFCURVE",
"584 372 OFFCURVE",
"530 318 OFFCURVE",
"454 288 OFFCURVE",
"408 287 QCURVE"
);
},
{
nodes = (
"491 507 OFFCURVE",
"479 536 OFFCURVE",
"458 559 OFFCURVE",
"432 573 OFFCURVE",
"417 573 QCURVE SMOOTH",
"390 573 LINE",
"390 409 LINE",
"409 409 LINE SMOOTH",
"426 409 OFFCURVE",
"456 423 OFFCURVE",
"478 445 OFFCURVE",
"491 475 OFFCURVE",
"491 492 QCURVE SMOOTH"
);
}
);
width = 645;
}
);
unicode = 0050;
},
{
glyphname = Q;
layers = (
{
layerId = "060321D7-853C-43F9-813D-B17018750B50";
paths = (
{
nodes = (
"543 492 LINE SMOOTH",
"543 507 OFFCURVE",
"531 536 OFFCURVE",
"511 559 OFFCURVE",
"484 573 OFFCURVE",
"469 573 QCURVE SMOOTH",
"392 573 LINE",
"392 123 LINE",
"421 123 LINE",
"499 3 LINE",
"480 0 OFFCURVE",
"462 0 QCURVE",
"210 1 LINE",
"171 1 OFFCURVE",
"103 37 OFFCURVE",
"52 95 OFFCURVE",
"23 168 OFFCURVE",
"23 205 QCURVE SMOOTH",
"23 510 LINE SMOOTH",
"23 543 OFFCURVE",
"57 609 OFFCURVE",
"110 663 OFFCURVE",
"177 696 OFFCURVE",
"210 696 QCURVE SMOOTH",
"480 696 LINE SMOOTH",
"518 696 OFFCURVE",
"586 659 OFFCURVE",
"637 601 OFFCURVE",
"666 528 OFFCURVE",
"666 492 QCURVE SMOOTH",
"666 186 LINE SMOOTH",
"666 148 OFFCURVE",
"648 114 QCURVE SMOOTH",
"643 105 LINE",
"544 257 LINE",
"543 256 LINE"
);
},
{
nodes = (
"518 258 LINE",
"406 184 LINE",
"526 0 LINE",
"686 0 LINE"
);
}
);
width = 711;
}
);
unicode = 0051;
},
{
glyphname = R;
layers = (
{
layerId = "060321D7-853C-43F9-813D-B17018750B50";
paths = (
{
nodes = (
"390 287 LINE",
"390 0 LINE",
"21 0 LINE",
"21 696 LINE",
"427 696 LINE SMOOTH",
"466 696 OFFCURVE",
"535 659 OFFCURVE",
"585 601 OFFCURVE",
"614 528 OFFCURVE",
"614 492 QCURVE SMOOTH",
"614 447 OFFCURVE",
"584 372 OFFCURVE",
"557 345 QCURVE SMOOTH",
"537 325 OFFCURVE",
"512 312 QCURVE",
"631 0 LINE",
"521 0 LINE",
"407 287 LINE"
);
},
{
nodes = (
"491 507 OFFCURVE",
"479 536 OFFCURVE",
"458 559 OFFCURVE",
"432 573 OFFCURVE",
"417 573 QCURVE SMOOTH",
"390 573 LINE",
"390 409 LINE",
"409 409 LINE SMOOTH",
"426 409 OFFCURVE",
"456 423 OFFCURVE",
"478 445 OFFCURVE",
"491 475 OFFCURVE",
"491 492 QCURVE SMOOTH"
);
}
);
width = 645;
}
);
unicode = 0052;
},
{
glyphname = S;
layers = (
{
layerId = "060321D7-853C-43F9-813D-B17018750B50";
paths = (
{
nodes = (
"663 205 LINE SMOOTH",
"663 163 OFFCURVE",
"631 88 OFFCURVE",
"575 32 OFFCURVE",
"500 0 OFFCURVE",
"458 0 QCURVE",
"213 1 LINE",
"174 1 OFFCURVE",
"107 37 OFFCURVE",
"56 96 OFFCURVE",
"27 169 OFFCURVE",
"27 205 QCURVE SMOOTH",
"27 287 LINE",
"395 287 LINE",
"395 123 LINE",
"466 123 LINE SMOOTH",
"479 123 OFFCURVE",
"505 137 OFFCURVE",
"526 158 OFFCURVE",
"540 184 OFFCURVE",
"540 197 QCURVE SMOOTH",
"540 291 LINE SMOOTH",
"540 306 OFFCURVE",
"513 328 OFFCURVE",
"499 328 QCURVE SMOOTH",
"139 328 LINE SMOOTH",
"116 328 OFFCURVE",
"75 350 OFFCURVE",
"45 385 OFFCURVE",
"27 429 OFFCURVE",
"27 451 QCURVE SMOOTH",
"27 470 OFFCURVE",
"26 492 OFFCURVE",
"26 494 QCURVE SMOOTH",
"26 514 OFFCURVE",
"30 529 QCURVE",
"36 559 OFFCURVE",
"70 619 OFFCURVE",
"119 667 OFFCURVE",
"180 696 OFFCURVE",
"213 696 QCURVE SMOOTH",
"477 696 LINE SMOOTH",
"516 696 OFFCURVE",
"583 660 OFFCURVE",
"633 601 OFFCURVE",
"662 528 OFFCURVE",
"663 492 QCURVE",
"540 492 LINE",
"540 496 LINE SMOOTH",
"540 508 OFFCURVE",
"528 535 OFFCURVE",
"508 558 OFFCURVE",
"481 573 OFFCURVE",
"466 573 QCURVE SMOOTH",
"395 573 LINE",
"395 451 LINE",
"540 451 LINE SMOOTH",
"562 451 OFFCURVE",
"606 433 OFFCURVE",
"641 403 OFFCURVE",
"663 362 OFFCURVE",
"663 339 QCURVE SMOOTH"
);
}
);
width = 695;
}
);
unicode = 0053;
},
{
glyphname = T;
layers = (
{
layerId = "060321D7-853C-43F9-813D-B17018750B50";
paths = (
{
nodes = (
"626 697 LINE",
"626 574 LINE",
"491 574 LINE",
"491 0 LINE",
"163 0 LINE",
"163 574 LINE",
"32 574 LINE",
"32 697 LINE"
);
}
);
width = 661;
}
);
unicode = 0054;
},
{
glyphname = U;
layers = (
{
layerId = "060321D7-853C-43F9-813D-B17018750B50";
paths = (
{
nodes = (
"696 696 LINE",
"696 185 LINE SMOOTH",
"696 152 OFFCURVE",
"663 86 OFFCURVE",
"609 33 OFFCURVE",
"543 0 OFFCURVE",
"510 0 QCURVE",
"262 -1 LINE",
"226 -1 OFFCURVE",
"153 28 OFFCURVE",
"94 79 OFFCURVE",
"58 147 OFFCURVE",
"58 185 QCURVE SMOOTH",
"58 696 LINE",
"445 696 LINE",
"445 122 LINE",
"499 122 LINE SMOOTH",
"512 122 OFFCURVE",
"539 135 OFFCURVE",
"560 156 OFFCURVE",
"573 182 OFFCURVE",
"573 196 QCURVE SMOOTH",
"573 696 LINE"
);
}
);
width = 744;
}
);
unicode = 0055;
},
{
glyphname = V;
layers = (
{
layerId = "060321D7-853C-43F9-813D-B17018750B50";
paths = (
{
nodes = (
"854 696 LINE",
"531 0 LINE",
"346 0 LINE",
"20 696 LINE",
"389 696 LINE",
"553 296 LINE",
"737 696 LINE"
);
}
);
width = 871;
}
);
unicode = 0056;
},
{
glyphname = W;
layers = (
{
layerId = "060321D7-853C-43F9-813D-B17018750B50";
paths = (
{
nodes = (
"856 0 LINE",
"649 561 LINE",
"449 0 LINE",
"277 0 LINE",
"20 696 LINE",
"389 696 LINE",
"493 426 LINE",
"594 696 LINE",
"968 696 LINE",
"1072 426 LINE",
"1173 696 LINE",
"1276 696 LINE",
"1028 0 LINE"
);
}
);
width = 1309;
}
);
unicode = 0057;
},
{
glyphname = X;
layers = (
{
layerId = "060321D7-853C-43F9-813D-B17018750B50";
paths = (
{
nodes = (
"16 697 LINE",
"401 697 LINE",
"453 580 LINE",
"541 697 LINE",
"712 697 LINE",
"515 442 LINE",
"712 0 LINE",
"340 0 LINE",
"278 134 LINE",
"174 0 LINE",
"16 0 LINE",
"216 266 LINE"
);
}
);
width = 727;
}
);
unicode = 0058;
},
{
glyphname = Y;
layers = (
{
layerId = "060321D7-853C-43F9-813D-B17018750B50";
paths = (
{
nodes = (
"386 696 LINE",
"777 696 LINE",
"406 0 LINE",
"10 0 LINE",
"240 426 LINE",
"85 696 LINE",
"212 696 LINE",
"302 541 LINE"
);
}
);
width = 802;
}
);
unicode = 0059;
},
{
glyphname = Z;
layers = (
{
layerId = "060321D7-853C-43F9-813D-B17018750B50";
paths = (
{
nodes = (
"246 573 LINE",
"16 573 LINE",
"16 696 LINE",
"651 696 LINE",
"651 573 LINE",
"422 122 LINE",
"651 122 LINE",
"651 0 LINE",
"16 0 LINE",
"16 123 LINE"
);
}
);
width = 671;
}
);
unicode = 005A;
},
{
glyphname = bracketleft;
layers = (
{
layerId = "060321D7-853C-43F9-813D-B17018750B50";
paths = (
{
nodes = (
"410 831 LINE",
"410 708 LINE",
"255 708 LINE",
"255 -12 LINE",
"410 -12 LINE",
"410 -134 LINE",
"29 -134 LINE",
"29 832 LINE"
);
}
);
width = 287;
}
);
unicode = 005B;
},
{
glyphname = backslash;
layers = (
{
layerId = "060321D7-853C-43F9-813D-B17018750B50";
paths = (
{
nodes = (
"96 800 LINE",
"403 -99 LINE",
"319 -99 LINE",
"11 800 LINE"
);
}
);
width = 420;
}
);
unicode = 005C;
},
{
glyphname = bracketright;
layers = (
{
layerId = "060321D7-853C-43F9-813D-B17018750B50";
paths = (
{
nodes = (
"410 832 LINE",
"410 -134 LINE",
"29 -134 LINE",
"29 -12 LINE",
"184 -12 LINE",
"184 708 LINE",
"29 708 LINE",
"29 831 LINE"
);
}
);
width = 287;
}
);
unicode = 005D;
},
{
glyphname = underscore;
layers = (
{
layerId = "060321D7-853C-43F9-813D-B17018750B50";
paths = (
{
nodes = (
"561 -20 LINE",
"561 -97 LINE",
"20 -97 LINE",
"20 -20 LINE"
);
}
);
width = 594;
}
);
unicode = 005F;
},
{
glyphname = a;
layers = (
{
layerId = "060321D7-853C-43F9-813D-B17018750B50";
paths = (
{
nodes = (
"127 0 LINE",
"10 0 LINE",
"333 696 LINE",
"518 696 LINE",
"844 0 LINE",
"475 0 LINE",
"410 157 LINE",
"199 157 LINE"
);
},
{
nodes = (
"369 259 LINE",
"311 400 LINE",
"246 259 LINE"
);
}
);
width = 844;
}
);
unicode = 0061;
},
{
glyphname = b;
layers = (
{
layerId = "060321D7-853C-43F9-813D-B17018750B50";
paths = (
{
nodes = (
"18 695 LINE",
"429 695 LINE SMOOTH",
"491 695 OFFCURVE",
"572 655 OFFCURVE",
"631 585 OFFCURVE",
"649 508 OFFCURVE",
"635 438 QCURVE",
"628 411 OFFCURVE",
"601 376 QCURVE",
"645 333 OFFCURVE",
"654 283 QCURVE",
"664 204 OFFCURVE",
"631 110 OFFCURVE",
"572 40 OFFCURVE",
"491 0 OFFCURVE",
"429 0 QCURVE SMOOTH",
"18 0 LINE"
);
},
{
nodes = (
"549 261 OFFCURVE",
"490 320 OFFCURVE",
"445 320 QCURVE",
"445 112 LINE",
"490 112 OFFCURVE",
"549 171 OFFCURVE",
"549 216 QCURVE SMOOTH"
);
},
{
nodes = (
"538 539 OFFCURVE",
"484 594 OFFCURVE",
"443 594 QCURVE",
"443 399 LINE",
"484 399 OFFCURVE",
"538 455 OFFCURVE",
"538 497 QCURVE SMOOTH"
);
}
);
width = 692;
}
);
unicode = 0062;
},
{
glyphname = c;
layers = (
{
layerId = "060321D7-853C-43F9-813D-B17018750B50";
paths = (
{
nodes = (
"485 696 LINE SMOOTH",
"524 696 OFFCURVE",
"591 660 OFFCURVE",
"641 601 OFFCURVE",
"670 528 OFFCURVE",
"671 492 QCURVE",
"548 492 LINE",
"548 496 LINE SMOOTH",
"548 508 OFFCURVE",
"536 535 OFFCURVE",
"516 558 OFFCURVE",
"489 573 OFFCURVE",
"474 573 QCURVE SMOOTH",
"388 573 LINE",
"388 123 LINE",
"474 123 LINE SMOOTH",
"489 123 OFFCURVE",
"516 138 OFFCURVE",
"536 162 OFFCURVE",
"548 189 OFFCURVE",
"548 201 QCURVE SMOOTH",
"548 205 LINE",
"671 205 LINE",
"670 163 OFFCURVE",
"638 88 OFFCURVE",
"584 32 OFFCURVE",
"510 0 OFFCURVE",
"467 0 QCURVE SMOOTH",
"206 0 LINE SMOOTH",
"167 0 OFFCURVE",
"100 37 OFFCURVE",
"49 95 OFFCURVE",
"20 169 OFFCURVE",
"20 205 QCURVE SMOOTH",
"20 492 LINE SMOOTH",
"20 528 OFFCURVE",
"49 601 OFFCURVE",
"100 659 OFFCURVE",
"167 696 OFFCURVE",
"206 696 QCURVE SMOOTH"
);
}
);
width = 692;
}
);
unicode = 0063;
},
{
glyphname = d;
layers = (
{
layerId = "060321D7-853C-43F9-813D-B17018750B50";
paths = (
{
nodes = (
"639 205 LINE SMOOTH",
"639 163 OFFCURVE",
"607 88 OFFCURVE",
"551 32 OFFCURVE",
"476 0 OFFCURVE",
"434 0 QCURVE SMOOTH",
"22 0 LINE",
"22 697 LINE",
"434 697 LINE SMOOTH",
"476 697 OFFCURVE",
"551 664 OFFCURVE",
"606 609 OFFCURVE",
"639 534 OFFCURVE",
"639 492 QCURVE SMOOTH"
);
},
{
nodes = (
"516 499 LINE SMOOTH",
"516 512 OFFCURVE",
"502 539 OFFCURVE",
"481 560 OFFCURVE",
"455 573 OFFCURVE",
"442 573 QCURVE SMOOTH",
"349 573 LINE",
"349 123 LINE",
"442 123 LINE SMOOTH",
"455 123 OFFCURVE",
"481 137 OFFCURVE",
"502 158 OFFCURVE",
"516 184 OFFCURVE",
"516 197 QCURVE SMOOTH"
);
}
);
width = 673;
}
);
unicode = 0064;
},
{
glyphname = e;
layers = (
{
layerId = "060321D7-853C-43F9-813D-B17018750B50";
paths = (
{
nodes = (
"349 419 LINE",
"524 419 LINE",
"524 315 LINE",
"349 315 LINE",
"349 123 LINE",
"525 123 LINE",
"525 0 LINE",
"22 0 LINE",
"22 696 LINE",
"525 696 LINE",
"525 573 LINE",
"349 573 LINE"
);
}
);
width = 616;
}
);
unicode = 0065;
},
{
glyphname = f;
layers = (
{
layerId = "060321D7-853C-43F9-813D-B17018750B50";
paths = (
{
nodes = (
"360 420 LINE",
"520 420 LINE",
"520 305 LINE",
"360 305 LINE",
"360 0 LINE",
"33 0 LINE",
"33 697 LINE",
"519 697 LINE",
"519 574 LINE",
"360 574 LINE"
);
}
);
width = 552;
}
);
unicode = 0066;
},
{
glyphname = g;
layers = (
{
layerId = "060321D7-853C-43F9-813D-B17018750B50";
paths = (
{
nodes = (
"511 696 LINE SMOOTH",
"550 696 OFFCURVE",
"617 660 OFFCURVE",
"667 601 OFFCURVE",
"696 528 OFFCURVE",
"697 492 QCURVE",
"574 492 LINE",
"574 496 LINE SMOOTH",
"574 508 OFFCURVE",
"562 535 OFFCURVE",
"542 558 OFFCURVE",
"515 573 OFFCURVE",
"500 573 QCURVE SMOOTH",
"402 573 LINE",
"402 123 LINE",
"480 123 LINE",
"488 124 OFFCURVE",
"497 126 QCURVE SMOOTH",
"514 130 OFFCURVE",
"529 137 QCURVE SMOOTH",
"567 156 OFFCURVE",
"567 197 QCURVE SMOOTH",
"567 205 LINE",
"503 205 LINE",
"503 328 LINE",
"690 328 LINE",
"690 205 LINE SMOOTH",
"690 163 OFFCURVE",
"657 89 OFFCURVE",
"602 33 OFFCURVE",
"564 16 QCURVE SMOOTH",
"530 1 OFFCURVE",
"493 0 QCURVE",
"220 0 LINE SMOOTH",
"181 0 OFFCURVE",
"114 37 OFFCURVE",
"63 95 OFFCURVE",
"34 169 OFFCURVE",
"34 205 QCURVE SMOOTH",
"34 492 LINE SMOOTH",
"34 528 OFFCURVE",
"63 601 OFFCURVE",
"114 659 OFFCURVE",
"181 696 OFFCURVE",
"220 696 QCURVE SMOOTH"
);
}
);
width = 711;
}
);
unicode = 0067;
},
{
glyphname = h;
layers = (
{
layerId = "060321D7-853C-43F9-813D-B17018750B50";
paths = (
{
nodes = (
"563 256 LINE",
"563 697 LINE",
"686 697 LINE",
"686 0 LINE",
"563 0 LINE",
"563 142 LINE",
"401 142 LINE",
"401 0 LINE",
"32 0 LINE",
"32 697 LINE",
"401 697 LINE",
"401 256 LINE"
);
}
);
width = 717;
}
);
unicode = 0068;
},
{
glyphname = i;
layers = (
{
layerId = "060321D7-853C-43F9-813D-B17018750B50";
paths = (
{
nodes = (
"356 696 LINE",
"356 0 LINE",
"29 0 LINE",
"29 696 LINE"
);
}
);
width = 383;
}
);
unicode = 0069;
},
{
glyphname = j;
layers = (
{
layerId = "060321D7-853C-43F9-813D-B17018750B50";
paths = (
{
nodes = (
"441 697 LINE",
"441 205 LINE SMOOTH",
"441 163 OFFCURVE",
"408 88 OFFCURVE",
"353 33 OFFCURVE",
"278 0 OFFCURVE",
"236 0 QCURVE SMOOTH",
"41 0 LINE",
"41 123 LINE",
"113 123 LINE",
"113 697 LINE"
);
}
);
width = 477;
}
);
unicode = 006A;
},
{
glyphname = k;
layers = (
{
layerId = "060321D7-853C-43F9-813D-B17018750B50";
paths = (
{
nodes = (
"388 279 LINE",
"388 0 LINE",
"19 0 LINE",
"19 697 LINE",
"388 697 LINE",
"388 443 LINE",
"593 697 LINE",
"716 697 LINE",
"565 505 LINE",
"755 0 LINE",
"645 0 LINE",
"487 407 LINE"
);
}
);
width = 778;
}
);
unicode = 006B;
},
{
glyphname = l;
layers = (
{
layerId = "060321D7-853C-43F9-813D-B17018750B50";
paths = (
{
nodes = (
"580 123 LINE",
"580 0 LINE",
"26 0 LINE",
"26 697 LINE",
"354 697 LINE",
"354 123 LINE"
);
}
);
width = 605;
}
);
unicode = 006C;
},
{
glyphname = m;
layers = (
{
layerId = "060321D7-853C-43F9-813D-B17018750B50";
paths = (
{
nodes = (
"397 696 LINE",
"516 531 LINE",
"635 696 LINE",
"1003 696 LINE",
"1003 0 LINE",
"635 0 LINE",
"635 525 LINE",
"517 357 LINE",
"517 354 LINE",
"397 525 LINE",
"397 0 LINE",
"29 0 LINE",
"29 696 LINE"
);
}
);
width = 1038;
}
);
unicode = 006D;
},
{
glyphname = n;
layers = (
{
layerId = "060321D7-853C-43F9-813D-B17018750B50";
paths = (
{
nodes = (
"392 697 LINE",
"617 354 LINE",
"617 697 LINE",
"740 697 LINE",
"740 0 LINE",
"617 0 LINE",
"617 144 LINE",
"392 484 LINE",
"392 0 LINE",
"23 0 LINE",
"23 697 LINE"
);
}
);
width = 779;
}
);
unicode = 006E;
},
{
glyphname = o;
layers = (
{
layerId = "060321D7-853C-43F9-813D-B17018750B50";
paths = (
{
nodes = (
"666 186 LINE SMOOTH",
"666 148 OFFCURVE",
"630 80 OFFCURVE",
"571 29 OFFCURVE",
"498 0 OFFCURVE",
"462 0 QCURVE",
"210 1 LINE",
"171 1 OFFCURVE",
"103 37 OFFCURVE",
"52 95 OFFCURVE",
"23 168 OFFCURVE",
"23 205 QCURVE SMOOTH",
"23 510 LINE SMOOTH",
"23 543 OFFCURVE",
"57 609 OFFCURVE",
"110 663 OFFCURVE",
"177 696 OFFCURVE",
"210 696 QCURVE SMOOTH",
"480 696 LINE SMOOTH",
"518 696 OFFCURVE",
"586 659 OFFCURVE",
"637 601 OFFCURVE",
"666 528 OFFCURVE",
"666 492 QCURVE SMOOTH"
);
},
{
nodes = (
"543 492 LINE SMOOTH",
"543 507 OFFCURVE",
"531 536 OFFCURVE",
"511 559 OFFCURVE",
"484 573 OFFCURVE",
"469 573 QCURVE SMOOTH",
"392 573 LINE",
"392 123 LINE",
"469 123 LINE SMOOTH",
"482 123 OFFCURVE",
"509 136 OFFCURVE",
"530 157 OFFCURVE",
"543 183 OFFCURVE",
"543 197 QCURVE SMOOTH"
);
}
);
width = 711;
}
);
unicode = 006F;
},
{
glyphname = p;
layers = (
{
layerId = "060321D7-853C-43F9-813D-B17018750B50";
paths = (
{
nodes = (
"390 287 LINE",
"390 0 LINE",
"21 0 LINE",
"21 696 LINE",
"427 696 LINE SMOOTH",
"466 696 OFFCURVE",
"535 659 OFFCURVE",
"585 601 OFFCURVE",
"614 528 OFFCURVE",
"614 492 QCURVE SMOOTH",
"614 447 OFFCURVE",
"584 372 OFFCURVE",
"530 318 OFFCURVE",
"454 288 OFFCURVE",
"408 287 QCURVE"
);
},
{
nodes = (
"491 507 OFFCURVE",
"479 536 OFFCURVE",
"458 559 OFFCURVE",
"432 573 OFFCURVE",
"417 573 QCURVE SMOOTH",
"390 573 LINE",
"390 409 LINE",
"409 409 LINE SMOOTH",
"426 409 OFFCURVE",
"456 423 OFFCURVE",
"478 445 OFFCURVE",
"491 475 OFFCURVE",
"491 492 QCURVE SMOOTH"
);
}
);
width = 645;
}
);
unicode = 0070;
},
{
glyphname = q;
layers = (
{
layerId = "060321D7-853C-43F9-813D-B17018750B50";
paths = (
{
nodes = (
"543 492 LINE SMOOTH",
"543 507 OFFCURVE",
"531 536 OFFCURVE",
"511 559 OFFCURVE",
"484 573 OFFCURVE",
"469 573 QCURVE SMOOTH",
"392 573 LINE",
"392 123 LINE",
"421 123 LINE",
"499 3 LINE",
"480 0 OFFCURVE",
"462 0 QCURVE",
"210 1 LINE",
"171 1 OFFCURVE",
"103 37 OFFCURVE",
"52 95 OFFCURVE",
"23 168 OFFCURVE",
"23 205 QCURVE SMOOTH",
"23 510 LINE SMOOTH",
"23 543 OFFCURVE",
"57 609 OFFCURVE",
"110 663 OFFCURVE",
"177 696 OFFCURVE",
"210 696 QCURVE SMOOTH",
"480 696 LINE SMOOTH",
"518 696 OFFCURVE",
"586 659 OFFCURVE",
"637 601 OFFCURVE",
"666 528 OFFCURVE",
"666 492 QCURVE SMOOTH",
"666 186 LINE SMOOTH",
"666 148 OFFCURVE",
"648 114 QCURVE SMOOTH",
"643 105 LINE",
"544 257 LINE",
"543 256 LINE"
);
},
{
nodes = (
"518 258 LINE",
"406 184 LINE",
"526 0 LINE",
"686 0 LINE"
);
}
);
width = 711;
}
);
unicode = 0071;
},
{
glyphname = r;
layers = (
{
layerId = "060321D7-853C-43F9-813D-B17018750B50";
paths = (
{
nodes = (
"390 287 LINE",
"390 0 LINE",
"21 0 LINE",
"21 696 LINE",
"427 696 LINE SMOOTH",
"466 696 OFFCURVE",
"535 659 OFFCURVE",
"585 601 OFFCURVE",
"614 528 OFFCURVE",
"614 492 QCURVE SMOOTH",
"614 447 OFFCURVE",
"584 372 OFFCURVE",
"557 345 QCURVE SMOOTH",
"537 325 OFFCURVE",
"512 312 QCURVE",
"631 0 LINE",
"521 0 LINE",
"407 287 LINE"
);
},
{
nodes = (
"491 507 OFFCURVE",
"479 536 OFFCURVE",
"458 559 OFFCURVE",
"432 573 OFFCURVE",
"417 573 QCURVE SMOOTH",
"390 573 LINE",
"390 409 LINE",
"409 409 LINE SMOOTH",
"426 409 OFFCURVE",
"456 423 OFFCURVE",
"478 445 OFFCURVE",
"491 475 OFFCURVE",
"491 492 QCURVE SMOOTH"
);
}
);
width = 645;
}
);
unicode = 0072;
},
{
glyphname = s;
layers = (
{
layerId = "060321D7-853C-43F9-813D-B17018750B50";
paths = (
{
nodes = (
"663 205 LINE SMOOTH",
"663 163 OFFCURVE",
"631 88 OFFCURVE",
"575 32 OFFCURVE",
"500 0 OFFCURVE",
"458 0 QCURVE",
"213 1 LINE",
"174 1 OFFCURVE",
"107 37 OFFCURVE",
"56 96 OFFCURVE",
"27 169 OFFCURVE",
"27 205 QCURVE SMOOTH",
"27 287 LINE",
"395 287 LINE",
"395 123 LINE",
"466 123 LINE SMOOTH",
"479 123 OFFCURVE",
"505 137 OFFCURVE",
"526 158 OFFCURVE",
"540 184 OFFCURVE",
"540 197 QCURVE SMOOTH",
"540 291 LINE SMOOTH",
"540 306 OFFCURVE",
"513 328 OFFCURVE",
"499 328 QCURVE SMOOTH",
"139 328 LINE SMOOTH",
"116 328 OFFCURVE",
"75 350 OFFCURVE",
"45 385 OFFCURVE",
"27 429 OFFCURVE",
"27 451 QCURVE SMOOTH",
"27 470 OFFCURVE",
"26 492 OFFCURVE",
"26 494 QCURVE SMOOTH",
"26 514 OFFCURVE",
"30 529 QCURVE",
"36 559 OFFCURVE",
"70 619 OFFCURVE",
"119 667 OFFCURVE",
"180 696 OFFCURVE",
"213 696 QCURVE SMOOTH",
"477 696 LINE SMOOTH",
"516 696 OFFCURVE",
"583 660 OFFCURVE",
"633 601 OFFCURVE",
"662 528 OFFCURVE",
"663 492 QCURVE",
"540 492 LINE",
"540 496 LINE SMOOTH",
"540 508 OFFCURVE",
"528 535 OFFCURVE",
"508 558 OFFCURVE",
"481 573 OFFCURVE",
"466 573 QCURVE SMOOTH",
"395 573 LINE",
"395 451 LINE",
"540 451 LINE SMOOTH",
"562 451 OFFCURVE",
"606 433 OFFCURVE",
"641 403 OFFCURVE",
"663 362 OFFCURVE",
"663 339 QCURVE SMOOTH"
);
}
);
width = 695;
}
);
unicode = 0073;
},
{
glyphname = t;
layers = (
{
layerId = "060321D7-853C-43F9-813D-B17018750B50";
paths = (
{
nodes = (
"626 697 LINE",
"626 574 LINE",
"491 574 LINE",
"491 0 LINE",
"163 0 LINE",
"163 574 LINE",
"32 574 LINE",
"32 697 LINE"
);
}
);
width = 661;
}
);
unicode = 0074;
},
{
glyphname = u;
layers = (
{
layerId = "060321D7-853C-43F9-813D-B17018750B50";
paths = (
{
nodes = (
"696 696 LINE",
"696 185 LINE SMOOTH",
"696 152 OFFCURVE",
"663 86 OFFCURVE",
"609 33 OFFCURVE",
"543 0 OFFCURVE",
"510 0 QCURVE",
"262 -1 LINE",
"226 -1 OFFCURVE",
"153 28 OFFCURVE",
"94 79 OFFCURVE",
"58 147 OFFCURVE",
"58 185 QCURVE SMOOTH",
"58 696 LINE",
"445 696 LINE",
"445 122 LINE",
"499 122 LINE SMOOTH",
"512 122 OFFCURVE",
"539 135 OFFCURVE",
"560 156 OFFCURVE",
"573 182 OFFCURVE",
"573 196 QCURVE SMOOTH",
"573 696 LINE"
);
}
);
width = 744;
}
);
unicode = 0075;
},
{
glyphname = x;
layers = (
{
layerId = "060321D7-853C-43F9-813D-B17018750B50";
paths = (
{
nodes = (
"16 697 LINE",
"401 697 LINE",
"453 580 LINE",
"541 697 LINE",
"712 697 LINE",
"515 442 LINE",
"712 0 LINE",
"340 0 LINE",
"278 134 LINE",
"174 0 LINE",
"16 0 LINE",
"216 266 LINE"
);
}
);
width = 727;
}
);
unicode = 0078;
},
{
glyphname = z;
layers = (
{
layerId = "060321D7-853C-43F9-813D-B17018750B50";
paths = (
{
nodes = (
"246 573 LINE",
"16 573 LINE",
"16 696 LINE",
"651 696 LINE",
"651 573 LINE",
"422 122 LINE",
"651 122 LINE",
"651 0 LINE",
"16 0 LINE",
"16 123 LINE"
);
}
);
width = 671;
}
);
unicode = 007A;
},
{
glyphname = Euro;
layers = (
{
layerId = "060321D7-853C-43F9-813D-B17018750B50";
paths = (
{
nodes = (
"392 483 LINE",
"765 484 LINE",
"765 384 LINE",
"392 383 LINE",
"392 328 LINE",
"765 329 LINE",
"765 213 LINE",
"392 213 LINE",
"392 123 LINE",
"767 123 LINE",
"767 0 LINE",
"269 1 LINE",
"230 1 OFFCURVE",
"163 37 OFFCURVE",
"112 95 OFFCURVE",
"83 151 OFFCURVE",
"83 179 QCURVE SMOOTH",
"83 213 LINE",
"21 213 LINE",
"21 328 LINE",
"83 328 LINE",
"83 383 LINE",
"21 383 LINE",
"21 483 LINE",
"83 483 LINE",
"83 508 LINE SMOOTH",
"83 544 OFFCURVE",
"112 601 OFFCURVE",
"163 660 OFFCURVE",
"231 696 OFFCURVE",
"269 696 QCURVE SMOOTH",
"767 696 LINE",
"767 573 LINE",
"392 573 LINE"
);
}
);
width = 802;
}
);
unicode = 20AC;
},
{
glyphname = w;
layers = (
{
layerId = "060321D7-853C-43F9-813D-B17018750B50";
paths = (
{
nodes = (
"856 0 LINE",
"649 561 LINE",
"449 0 LINE",
"277 0 LINE",
"20 696 LINE",
"389 696 LINE",
"493 426 LINE",
"594 696 LINE",
"968 696 LINE",
"1072 426 LINE",
"1173 696 LINE",
"1276 696 LINE",
"1028 0 LINE"
);
}
);
width = 1309;
}
);
unicode = 0077;
},
{
glyphname = y;
layers = (
{
layerId = "060321D7-853C-43F9-813D-B17018750B50";
paths = (
{
nodes = (
"386 696 LINE",
"777 696 LINE",
"406 0 LINE",
"10 0 LINE",
"240 426 LINE",
"85 696 LINE",
"212 696 LINE",
"302 541 LINE"
);
}
);
width = 802;
}
);
unicode = 0079;
},
{
glyphname = v;
layers = (
{
layerId = "060321D7-853C-43F9-813D-B17018750B50";
paths = (
{
nodes = (
"854 696 LINE",
"531 0 LINE",
"346 0 LINE",
"20 696 LINE",
"389 696 LINE",
"553 296 LINE",
"737 696 LINE"
);
}
